<svg width="224" height="23" viewBox="0 0 224 23" fill="none" xmlns="http://www.w3.org/2000/svg">
<path d="M0.52 1.048H13.084V5.08H5.596V9.832H12.58V13.9H5.596V22H0.52V1.048ZM34.9723 14.188C34.9723 15.772 34.6363 17.176 33.9643 18.4C33.2923 19.6 32.2843 20.548 30.9403 21.244C29.5963 21.94 27.9043 22.288 25.8643 22.288C22.9603 22.288 20.7403 21.568 19.2043 20.128C17.6683 18.664 16.9003 16.696 16.9003 14.224V1.048H22.0843V13.612C22.0843 15.244 22.4083 16.408 23.0563 17.104C23.7283 17.776 24.6883 18.112 25.9363 18.112C27.3283 18.112 28.3243 17.752 28.9243 17.032C29.5243 16.312 29.8243 15.16 29.8243 13.576V1.048H34.9723V14.188ZM59.695 1.048V22H53.107L44.359 6.628H44.215C44.239 6.892 44.263 7.24 44.287 7.672C44.311 8.104 44.335 8.584 44.359 9.112C44.383 9.64 44.407 10.18 44.431 10.732C44.455 11.284 44.479 11.812 44.503 12.316V22H39.895V1.048H46.519L55.267 16.24H55.339C55.339 15.976 55.327 15.64 55.303 15.232C55.279 14.8 55.255 14.332 55.231 13.828C55.207 13.324 55.183 12.808 55.159 12.28C55.135 11.752 55.123 11.248 55.123 10.768V1.048H59.695ZM64.8208 1.048H70.0048V10.408C70.1728 10.12 70.3528 9.832 70.5448 9.544C70.7608 9.256 70.9768 8.968 71.1928 8.68C71.4088 8.392 71.6128 8.104 71.8048 7.816L77.0968 1.048H82.7488L75.5128 10.372L82.7128 22H76.9168L71.8408 13.504L70.0048 14.728V22H64.8208V1.048ZM104.803 11.488C104.803 13.648 104.443 15.544 103.723 17.176C103.003 18.784 101.875 20.044 100.339 20.956C98.827 21.844 96.859 22.288 94.435 22.288C92.059 22.288 90.103 21.844 88.567 20.956C87.031 20.044 85.891 18.772 85.147 17.14C84.427 15.508 84.067 13.612 84.067 11.452C84.067 9.292 84.439 7.408 85.183 5.8C85.927 4.168 87.067 2.908 88.603 2.02C90.139 1.132 92.095 0.688 94.471 0.688C96.871 0.688 98.827 1.144 100.339 2.056C101.875 2.944 103.003 4.192 103.723 5.8C104.443 7.408 104.803 9.304 104.803 11.488ZM89.431 11.488C89.431 12.856 89.599 14.044 89.935 15.052C90.295 16.036 90.835 16.792 91.555 17.32C92.299 17.848 93.259 18.112 94.435 18.112C95.635 18.112 96.595 17.848 97.315 17.32C98.059 16.792 98.587 16.036 98.899 15.052C99.235 14.044 99.403 12.856 99.403 11.488C99.403 9.424 99.019 7.804 98.251 6.628C97.507 5.428 96.247 4.828 94.471 4.828C93.295 4.828 92.335 5.104 91.591 5.656C90.847 6.184 90.295 6.94 89.935 7.924C89.599 8.908 89.431 10.096 89.431 11.488Z" fill="white"/>
<path d="M116.176 1.048C118.96 1.048 121.012 1.624 122.332 2.776C123.652 3.928 124.312 5.548 124.312 7.636C124.312 8.572 124.168 9.472 123.88 10.336C123.592 11.176 123.124 11.932 122.476 12.604C121.852 13.276 121 13.804 119.92 14.188C118.864 14.572 117.556 14.764 115.996 14.764H114.196V22H109.012V1.048H116.176ZM115.456 10.696C116.536 10.696 117.412 10.456 118.084 9.976C118.756 9.496 119.092 8.74 119.092 7.708C119.092 6.844 118.84 6.196 118.336 5.764C117.856 5.308 117.088 5.08 116.032 5.08H114.196V10.696H115.456ZM133.286 1.048V17.932H141.818V22H128.102V1.048H133.286ZM142.914 22L150.294 0.939999H156.846L164.298 22H158.754L157.35 17.5H149.898L148.494 22H142.914ZM154.938 9.112C154.818 8.752 154.674 8.284 154.506 7.708C154.338 7.108 154.17 6.496 154.002 5.872C153.834 5.248 153.69 4.72 153.57 4.288C153.498 4.72 153.378 5.248 153.21 5.872C153.042 6.496 152.874 7.108 152.706 7.708C152.538 8.308 152.406 8.776 152.31 9.112L151.014 13.324H156.198L154.938 9.112ZM186.609 1.048V22H180.021L171.273 6.628H171.129C171.153 6.892 171.177 7.24 171.201 7.672C171.225 8.104 171.249 8.584 171.273 9.112C171.297 9.64 171.321 10.18 171.345 10.732C171.369 11.284 171.393 11.812 171.417 12.316V22H166.809V1.048H173.433L182.181 16.24H182.253C182.253 15.976 182.241 15.64 182.217 15.232C182.193 14.8 182.169 14.332 182.145 13.828C182.121 13.324 182.097 12.808 182.073 12.28C182.049 11.752 182.037 11.248 182.037 10.768V1.048H186.609ZM191.735 1.048H204.371V5.08H196.919V9.112H203.867V13.144H196.919V17.932H204.371V22H191.735V1.048ZM223.048 1.048V5.152H217.396V22H212.284V5.152H206.668V1.048H223.048Z" fill="#6CF6FF"/>
</svg>
