<svg width="224" height="29" viewBox="0 0 224 29" fill="none" xmlns="http://www.w3.org/2000/svg">
<path d="M5.604 28H0.24V2.296H14.964V6.76H5.604V13.384H14.316V17.848H5.604V28ZM37.6018 8.344V28H33.4978L32.7778 25.48H32.4898C32.0818 26.152 31.5538 26.704 30.9058 27.136C30.2818 27.544 29.5858 27.844 28.8178 28.036C28.0498 28.252 27.2578 28.36 26.4418 28.36C25.0498 28.36 23.8258 28.108 22.7698 27.604C21.7138 27.1 20.8978 26.32 20.3218 25.264C19.7458 24.208 19.4578 22.84 19.4578 21.16V8.344H24.8218V19.828C24.8218 21.22 25.0738 22.276 25.5778 22.996C26.0818 23.716 26.8858 24.076 27.9898 24.076C29.0938 24.076 29.9458 23.824 30.5458 23.32C31.1698 22.816 31.6018 22.084 31.8418 21.124C32.1058 20.164 32.2378 18.988 32.2378 17.596V8.344H37.6018ZM54.386 7.984C56.498 7.984 58.19 8.56 59.462 9.712C60.734 10.84 61.37 12.664 61.37 15.184V28H56.006V16.516C56.006 15.1 55.754 14.044 55.25 13.348C54.746 12.628 53.942 12.268 52.838 12.268C51.206 12.268 50.09 12.832 49.49 13.96C48.89 15.064 48.59 16.66 48.59 18.748V28H43.226V8.344H47.33L48.05 10.864H48.338C48.77 10.192 49.298 9.652 49.922 9.244C50.546 8.812 51.242 8.5 52.01 8.308C52.778 8.092 53.57 7.984 54.386 7.984ZM72.2501 12.88C72.2501 13.624 72.2141 14.368 72.1421 15.112C72.0941 15.832 72.0341 16.564 71.9621 17.308H72.0341C72.2741 16.972 72.5141 16.636 72.7541 16.3C73.0181 15.964 73.2821 15.628 73.5461 15.292C73.8101 14.956 74.0861 14.632 74.3741 14.32L79.8821 8.344H85.9301L78.1181 16.876L86.3981 28H80.2061L74.5541 20.044L72.2501 21.88V28H66.8861V0.639998H72.2501V12.88ZM107.066 18.136C107.066 19.768 106.838 21.22 106.382 22.492C105.95 23.764 105.314 24.844 104.474 25.732C103.658 26.596 102.662 27.256 101.486 27.712C100.31 28.144 98.9783 28.36 97.4903 28.36C96.1223 28.36 94.8503 28.144 93.6743 27.712C92.5223 27.256 91.5263 26.596 90.6863 25.732C89.8463 24.844 89.1863 23.764 88.7063 22.492C88.2503 21.22 88.0223 19.768 88.0223 18.136C88.0223 15.952 88.4063 14.116 89.1743 12.628C89.9423 11.116 91.0463 9.964 92.4863 9.172C93.9263 8.38 95.6303 7.984 97.5983 7.984C99.4463 7.984 101.078 8.38 102.494 9.172C103.91 9.964 105.026 11.116 105.842 12.628C106.658 14.116 107.066 15.952 107.066 18.136ZM93.4943 18.136C93.4943 19.432 93.6263 20.524 93.8903 21.412C94.1783 22.276 94.6223 22.936 95.2223 23.392C95.8223 23.824 96.6023 24.04 97.5623 24.04C98.5223 24.04 99.2903 23.824 99.8663 23.392C100.466 22.936 100.898 22.276 101.162 21.412C101.45 20.524 101.594 19.432 101.594 18.136C101.594 16.84 101.45 15.76 101.162 14.896C100.898 14.032 100.466 13.384 99.8663 12.952C99.2663 12.52 98.4863 12.304 97.5263 12.304C96.1103 12.304 95.0783 12.796 94.4303 13.78C93.8063 14.74 93.4943 16.192 93.4943 18.136Z" fill="white"/>
<path d="M120.139 2.296C123.451 2.296 125.863 3.016 127.375 4.456C128.911 5.872 129.679 7.828 129.679 10.324C129.679 11.452 129.511 12.532 129.175 13.564C128.839 14.572 128.275 15.484 127.483 16.3C126.715 17.092 125.695 17.716 124.423 18.172C123.151 18.628 121.579 18.856 119.707 18.856H117.367V28H111.931V2.296H120.139ZM119.851 6.76H117.367V14.392H119.167C120.199 14.392 121.087 14.26 121.831 13.996C122.575 13.732 123.151 13.312 123.559 12.736C123.967 12.16 124.171 11.416 124.171 10.504C124.171 9.232 123.823 8.296 123.127 7.696C122.431 7.072 121.339 6.76 119.851 6.76ZM139.469 28H134.105V0.639998H139.469V28ZM153.138 7.948C155.778 7.948 157.794 8.524 159.186 9.676C160.602 10.804 161.31 12.544 161.31 14.896V28H157.566L156.522 25.336H156.378C155.826 26.032 155.25 26.608 154.65 27.064C154.074 27.52 153.402 27.844 152.634 28.036C151.89 28.252 150.966 28.36 149.862 28.36C148.71 28.36 147.666 28.144 146.73 27.712C145.818 27.256 145.098 26.572 144.57 25.66C144.042 24.724 143.778 23.548 143.778 22.132C143.778 20.044 144.51 18.508 145.974 17.524C147.438 16.516 149.634 15.964 152.562 15.868L155.982 15.76V14.896C155.982 13.864 155.706 13.108 155.154 12.628C154.626 12.148 153.882 11.908 152.922 11.908C151.962 11.908 151.026 12.052 150.114 12.34C149.202 12.604 148.29 12.94 147.378 13.348L145.614 9.712C146.67 9.16 147.834 8.728 149.106 8.416C150.402 8.104 151.746 7.948 153.138 7.948ZM153.894 18.964C152.166 19.012 150.966 19.324 150.294 19.9C149.622 20.476 149.286 21.232 149.286 22.168C149.286 22.984 149.526 23.572 150.006 23.932C150.486 24.268 151.11 24.436 151.878 24.436C153.03 24.436 154.002 24.1 154.794 23.428C155.586 22.732 155.982 21.76 155.982 20.512V18.892L153.894 18.964ZM177.96 7.984C180.072 7.984 181.764 8.56 183.036 9.712C184.308 10.84 184.944 12.664 184.944 15.184V28H179.58V16.516C179.58 15.1 179.328 14.044 178.824 13.348C178.32 12.628 177.516 12.268 176.412 12.268C174.78 12.268 173.664 12.832 173.064 13.96C172.464 15.064 172.164 16.66 172.164 18.748V28H166.8V8.344H170.904L171.624 10.864H171.912C172.344 10.192 172.872 9.652 173.496 9.244C174.12 8.812 174.816 8.5 175.584 8.308C176.352 8.092 177.144 7.984 177.96 7.984ZM198.56 7.984C200.384 7.984 201.944 8.332 203.24 9.028C204.56 9.724 205.58 10.732 206.3 12.052C207.02 13.372 207.38 14.992 207.38 16.912V19.504H194.708C194.756 21.016 195.2 22.204 196.04 23.068C196.904 23.932 198.092 24.364 199.604 24.364C200.876 24.364 202.028 24.244 203.06 24.004C204.092 23.74 205.16 23.344 206.264 22.816V26.956C205.304 27.436 204.284 27.784 203.204 28C202.148 28.24 200.864 28.36 199.352 28.36C197.384 28.36 195.644 28 194.132 27.28C192.62 26.536 191.432 25.42 190.568 23.932C189.704 22.444 189.272 20.572 189.272 18.316C189.272 16.012 189.656 14.104 190.424 12.592C191.216 11.056 192.308 9.904 193.7 9.136C195.092 8.368 196.712 7.984 198.56 7.984ZM198.596 11.8C197.564 11.8 196.7 12.136 196.004 12.808C195.332 13.48 194.936 14.524 194.816 15.94H202.34C202.34 15.148 202.196 14.44 201.908 13.816C201.644 13.192 201.236 12.7 200.684 12.34C200.132 11.98 199.436 11.8 198.596 11.8ZM220.01 24.076C220.61 24.076 221.186 24.016 221.738 23.896C222.29 23.776 222.842 23.632 223.394 23.464V27.46C222.818 27.7 222.098 27.904 221.234 28.072C220.394 28.264 219.47 28.36 218.462 28.36C217.286 28.36 216.23 28.168 215.294 27.784C214.382 27.4 213.65 26.74 213.098 25.804C212.57 24.844 212.306 23.524 212.306 21.844V12.376H209.75V10.108L212.702 8.308L214.25 4.168H217.67V8.344H223.178V12.376H217.67V21.844C217.67 22.588 217.886 23.152 218.318 23.536C218.75 23.896 219.314 24.076 220.01 24.076Z" fill="#6CF6FF"/>
</svg>
